# xmcd CD database file
#
# Track frame offsets:
#	150
#	37956
#	63858
#	93177
#	127826
#	150684
#	170304
#	201197
#	232635
#	242142
#	284597
#
# Disc length: 4179 seconds
#
# Revision: 0
# Processed by: cddbd v1.5.1PL0 Copyright (c) Steve Scherf et al.
# Submitted via: CDex 1.50
#
DISCID=8310510b
DTITLE=jmTrio - Interludium
DYEAR=1900
DGENRE=Jazz
TTITLE0=Mystic Call
TTITLE1=Interludium I
TTITLE2=Overstep - for beata
TTITLE3=Late Junction
TTITLE4=Interludium Ii
TTITLE5=Ta Gora(that mountain) - for dacid Friedman
TTITLE6=Ezechiel
TTITLE7=Smatter
TTITLE8=Ta Gora(that mountain) - repryza
TTITLE9=Interludium III
TTITLE10=data track
EXTD=
EXTT0=
EXTT1=
EXTT2=
EXTT3=
EXTT4=
EXTT5=
EXTT6=
EXTT7=
EXTT8=
EXTT9=
EXTT10=
PLAYORDER=
